<svg id="Capa_1" data-name="Capa 1" xmlns="http://www.w3.org/2000/svg" viewBox="0 0 229.28 70.04"><defs><style>.cls-1{fill:#ef85a7;}.cls-2{fill:#a3d7dc;}</style></defs><path class="cls-1" d="M231.76,10.13c-1.36-2.63-6-2.37-6.82.18-.86,2.29,1.46,4.48.15,6.78C219,28,204.2,18,210.83,8.21,215.3.68,230.26,2,231.76,10.13Z" transform="translate(-3.22 -2.19)"/><path class="cls-1" d="M38,2.68c4.71,0,9.42,0,14.13.23,9.7.38,12.68,12.59,14.2,16.45,3.15,8.06.33,9.5,1.12,33.4a17,17,0,0,1-.82,6.3C64.45,65.62,58,71.73,54.16,70.44c-4-1.36-2.36-9.9-8.14-12.89a9.43,9.43,0,0,0-5.68-.77c-2.32-.53-3.72-.11-4.6.46-3.73,2.44-.84,9.49-5,12.91C29,71.57,26.72,71.79,25,72c-5.59.56-10.13-1.81-13.35-7.2-5.52-9.25-2.82-21.41,6.09-25.95,2.6-1.32,5.72-1.62,8.63-1.78,6.25-.36,12.53-.26,18.8-.47a45.61,45.61,0,0,0,8.66-.81c8.44-2,12.94-11,10.39-20.37C61.94,7,54.14,2.52,47.06,5.55c-4.8,2.06-7.56,6.19-8.83,11.79-.09.4-.17.73-.21.95" transform="translate(-3.22 -2.19)"/><path class="cls-2" d="M76.51,3.74A7,7,0,0,1,81.94,6c1.36,1.51,2.29,3.85,2.8,7A20.23,20.23,0,0,1,89,5a8,8,0,0,1,5.91-2.85,7,7,0,0,1,5.47,2.65,17.5,17.5,0,0,1,3.39,7.7,18,18,0,0,1,4.11-7.63,8.23,8.23,0,0,1,6-2.72q4.84,0,7.37,5.43t2.52,15.91V65.29a7.24,7.24,0,0,1-.51,3.17,1.9,1.9,0,0,1-1.84,1H109.65a1.88,1.88,0,0,1-1.83-1,7.07,7.07,0,0,1-.52-3.17V20.81a6.65,6.65,0,0,0-.35-2.33c-.23-.6-.55-.9-1-.9s-.94.35-1.17,1V65.29a7.21,7.21,0,0,1-.52,3.17,1.9,1.9,0,0,1-1.84,1H90.69a1.88,1.88,0,0,1-1.83-1,7.07,7.07,0,0,1-.52-3.17V20.81A6.65,6.65,0,0,0,88,18.48c-.23-.6-.55-.9-1-.9s-.94.35-1.17,1V65.29a7.21,7.21,0,0,1-.52,3.17,1.9,1.9,0,0,1-1.83,1H71.73a1.9,1.9,0,0,1-1.83-1,7.07,7.07,0,0,1-.52-3.17V19.65a26.46,26.46,0,0,0-.69-6.92,11.42,11.42,0,0,0-2.56-4.46,2.64,2.64,0,0,1-.59-.84,2.84,2.84,0,0,1-.1-.84V5c0-.86.27-1.3.83-1.3Z" transform="translate(-3.22 -2.19)"/><path class="cls-2" d="M141.91,39.56a7.44,7.44,0,0,0,2.7,5.5,8.58,8.58,0,0,0,6,2.52q6.58,0,10.8-8.28a6,6,0,0,1,.59-1,.63.63,0,0,1,.51-.19h.84c.32,0,.54.22.65.64a10.13,10.13,0,0,1,.18,2.33,45.72,45.72,0,0,1-2.32,14.81,27.16,27.16,0,0,1-6.58,10.92A13.31,13.31,0,0,1,145.78,71a14.29,14.29,0,0,1-10.1-4.27q-4.5-4.26-7.16-12.15a55.94,55.94,0,0,1-2.67-18,57.62,57.62,0,0,1,2.5-17.72,29,29,0,0,1,7.09-12.22A15,15,0,0,1,146.2,2.19a13.72,13.72,0,0,1,8.33,2.72,18.08,18.08,0,0,1,5.85,7.76,29.5,29.5,0,0,1,2.14,11.63q0,8.42-3.25,13.9T151,43.7q-5,0-8.1-6.21c-.27,0-.52.2-.72.58A3.14,3.14,0,0,0,141.91,39.56ZM144,30.64c.28.69.65,1,1.11,1,.83,0,1.24-.86,1.24-2.58V10.73c0-1.73-.41-2.59-1.24-2.59-.46,0-.83.35-1.11,1Z" transform="translate(-3.22 -2.19)"/><path class="cls-2" d="M227.28,18.13l.17,3.91V53.79a10.43,10.43,0,0,0,.21,2.6c.14.45.37.68.69.68s.7-.26.87-.79a25.44,25.44,0,0,0,.52-3.62,13.82,13.82,0,0,1,.27-2.32.54.54,0,0,1,.56-.4h1.17c.28,0,.47.27.59.79a14.28,14.28,0,0,1,.17,2.72c0,6-1,10.67-3,13.92A9.44,9.44,0,0,1,221,72.23a9,9,0,0,1-8.2-4.92q-2.88-4.92-2.87-14.09V27.31a28.55,28.55,0,0,0-.07-4.08,27.69,27.69,0,0,0-.72-4.39c.45.56,3.94,4.87,9.48,4.51C223.86,23,226.84,18.78,227.28,18.13Z" transform="translate(-3.22 -2.19)"/><path class="cls-2" d="M38.25,19.43a7.22,7.22,0,0,0,1.33-.34,9.87,9.87,0,0,0,4.1-2.88c1-3.2,1.38-3.75,1.58-3.73.4,0,.32,2.39.2,3.69a16.35,16.35,0,0,1-.62,3.46,22.86,22.86,0,0,1-3.68,6.81,24.34,24.34,0,0,1-4.79,4.74c-5.9,4.25-14.27,6.13-21.45,3.57-1.29-.46-7.43-2.81-10.18-9.24-.79-1.87-3-7,0-12.71A17.3,17.3,0,0,1,15.5,4.38c4.21-1,9.67-.54,12.55,2.54,3.21,3.45,1.12,8,5.48,11.18" transform="translate(-3.22 -2.19)"/><circle class="cls-2" cx="60.92" cy="15.93" r="4.19"/><path class="cls-2" d="M181,50.56c-.21-2-.42-2.52-.84-2.52s-.76.48-1,4.45c-.9,11.91-3,18.88-8.1,18.88-3.25,0-5.6-3.73-5.6-14,0-13.59,1.59-26.46,7.4-26.46,2.91,0,4.64,4.09,5.19,12.15.21,2.88.62,3.72,1,3.72s.76-.84.76-2.64c0-12.75-3.12-19.73-8.79-19.73-1.87,0-2.84,1.09-2.84,3a21.29,21.29,0,0,0,.21,2.29c0,.72-.28,1.08-.48,1.08s-.49-.24-.49-1.21c0-19.12,4.22-26.09,13-26.09,6.65,0,9.9,5.65,11.63,16.35.41,2.41.62,3,1,3,.69,0,.76-.6,1.24-4.93,1.11-9.62,3.32-14.92,7.68-14.92,3.05,0,5.19,3.37,5.19,14.44,0,14.07-1.59,26-6.57,26-3.46,0-5.05-4.09-5.4-16.84-.07-1.81-.55-2.41-.9-2.41-.55,0-.83.85-.83,2.65,0,14.91,3.25,23.21,8.58,23.21,1.52,0,2.08-.84,2.08-2.52a21.14,21.14,0,0,0-.21-2.17c0-.6.21-1,.48-1s.49.24.49,1.08c0,18.76-3.32,25.5-12,25.5C185.44,71,182.4,65.24,181,50.56Z" transform="translate(-3.22 -2.19)"/></svg>